Coordinates
version=1
nRows=18
nColumns=63
inDegrees=yes

Units are S.I. units (second, meters, Newtons, ...)
If the header above contains a line with 'inDegrees', this indicates whether rotational values are in degrees (yes) or radians (no).

endheader
time	pelvis_tilt	pelvis_list	pelvis_rotation	pelvis_tx	pelvis_ty	pelvis_tz	hip_flexion_r	hip_adduction_r	hip_rotation_r	knee_angle_r	knee_angle_r_beta	ankle_angle_r	subtalar_angle_r	mtp_angle_r	hip_flexion_l	hip_adduction_l	hip_rotation_l	knee_angle_l	knee_angle_l_beta	ankle_angle_l	subtalar_angle_l	mtp_angle_l	L5_S1_Flex_Ext	L5_S1_Lat_Bending	L5_S1_axial_rotation	L4_L5_Flex_Ext	L4_L5_Lat_Bending	L4_L5_axial_rotation	L3_L4_Flex_Ext	L3_L4_Lat_Bending	L3_L4_axial_rotation	L2_L3_Flex_Ext	L2_L3_Lat_Bending	L2_L3_axial_rotation	L1_L2_Flex_Ext	L1_L2_Lat_Bending	L1_L2_axial_rotation	L1_T12_Flex_Ext	L1_T12_Lat_Bending	L1_T12_axial_rotation	Abs_r3	Abs_r2	Abs_r1	Abs_t1	Abs_t2	neck_flexion	neck_bending	neck_rotation	arm_flex_r	arm_add_r	arm_rot_r	elbow_flex_r	pro_sup_r	wrist_flex_r	wrist_dev_r	arm_flex_l	arm_add_l	arm_rot_l	elbow_flex_l	pro_sup_l	wrist_flex_l	wrist_dev_l
1.116667	-0.045716	-5.997832	94.211394	0.156996	0.626520	0.619252	6.893807	-0.677012	-12.547918	8.008622	0.139777	23.183676	-4.870202	0.000000	6.888096	-0.548601	-5.454995	5.852836	0.102151	24.458467	15.444681	0.000000	-0.036489	0.730923	0.033830	-0.067764	0.972128	0.035945	-0.059948	1.777166	0.035945	-0.041703	1.777166	0.029601	-0.033884	1.490498	0.027487	-0.020850	1.132200	0.025373	-0.260637	8.268347	0.188153	0.000000	0.000000	25.633127	-8.101450	2.752372	10.075993	-6.069953	173.718677	0.664192	27.454703	-2.762869	-0.311750	43.567859	-0.877521	17.859816	148.422112	89.533991	-1.550899	4.479662
1.133333	-0.024341	-5.975242	94.817469	0.156286	0.626267	0.620250	6.770167	-0.750961	-13.030631	7.940724	0.138592	23.269851	-4.622532	0.000000	7.039740	-0.522373	-5.010074	5.990790	0.104559	24.350968	15.538388	0.000000	-0.039932	0.720543	-0.102392	-0.074157	0.958322	-0.108792	-0.065604	1.751928	-0.108792	-0.045638	1.751928	-0.089593	-0.037081	1.469331	-0.083194	-0.022817	1.116121	-0.076794	-0.285228	8.150926	-0.569476	0.000000	0.000000	25.495438	-7.360173	3.079352	10.368716	-5.951359	172.449320	0.664323	27.068346	-2.078933	-0.509982	44.626753	-0.650022	18.791385	149.176059	89.493668	-0.257233	4.624812
1.150000	-0.010679	-5.979751	95.278697	0.155794	0.626011	0.621267	6.695908	-0.824602	-13.484850	7.885131	0.137621	23.408562	-4.207790	0.000000	7.181385	-0.495866	-4.599909	6.072845	0.105991	24.243636	15.572469	0.000000	-0.042820	0.709227	-0.211816	-0.079521	0.943272	-0.225055	-0.070349	1.724415	-0.225055	-0.048939	1.724415	-0.185339	-0.039763	1.446256	-0.172101	-0.024467	1.098593	-0.158862	-0.305858	8.022922	-1.178058	0.000000	0.000000	25.369784	-6.783583	3.227605	10.632780	-5.863560	171.131993	0.655347	26.499320	-1.562893	-0.798663	45.543883	-0.442727	19.580273	149.782050	89.455611	0.880534	4.749004
1.166667	0.004745	-6.009022	95.639290	0.155484	0.625773	0.622295	6.654918	-0.883610	-13.898342	7.816293	0.136420	23.570237	-3.719544	0.000000	7.319710	-0.477661	-4.251140	6.108569	0.106615	24.150289	15.644723	0.000000	-0.046327	0.699394	-0.301923	-0.086033	0.930194	-0.320793	-0.076110	1.700507	-0.320793	-0.052947	1.700507	-0.264182	-0.043019	1.426205	-0.245312	-0.026471	1.083362	-0.226442	-0.330907	7.911687	-1.679204	0.000000	0.000000	25.289081	-6.343691	3.286925	10.899956	-5.784147	170.017263	0.639838	25.938908	-1.174291	-1.000114	46.305362	-0.275032	20.194246	150.187401	89.421783	1.781354	4.686325
1.183333	0.017297	-6.070434	95.873968	0.155358	0.625535	0.623343	6.669401	-0.932670	-14.258365	7.753812	0.135330	23.765404	-3.155584	0.000000	7.462736	-0.462630	-3.951767	6.102069	0.106501	24.073947	15.685482	0.000000	-0.050345	0.690727	-0.364325	-0.093496	0.918667	-0.387096	-0.082712	1.679435	-0.387096	-0.057539	1.679435	-0.318785	-0.046750	1.408531	-0.296014	-0.028767	1.069937	-0.273244	-0.359609	7.813646	-2.026269	0.000000	0.000000	25.263149	-6.059621	3.231013	11.176128	-5.705418	169.329574	0.623155	25.499697	-0.980658	-1.169731	46.932315	-0.130375	20.621575	150.366401	89.391228	2.467903	4.555460
1.200000	0.009292	-6.185064	95.971738	0.155484	0.625261	0.624390	6.756585	-0.979473	-14.502302	7.684658	0.134123	23.967911	-2.573331	0.000000	7.623249	-0.439827	-3.772229	6.037130	0.105368	24.007675	15.755738	0.000000	-0.051727	0.680993	-0.402518	-0.096063	0.905720	-0.427675	-0.084983	1.655766	-0.427675	-0.059119	1.655766	-0.352203	-0.048034	1.388681	-0.327045	-0.029557	1.054858	-0.301888	-0.369483	7.703527	-2.238682	0.000000	0.000000	25.294260	-5.935150	3.108967	11.483446	-5.592139	169.454207	0.615158	25.014558	-1.010688	-1.266892	47.417312	-0.057898	20.857136	150.353922	89.367023	2.869621	4.404872
1.216667	-0.023290	-6.358162	95.959762	0.155816	0.624926	0.625465	6.918905	-1.033968	-14.693699	7.610410	0.132827	24.186735	-1.937787	0.000000	7.815382	-0.398189	-3.599159	5.920839	0.103338	23.942503	15.717974	0.000000	-0.050612	0.669665	-0.420026	-0.093992	0.890655	-0.446278	-0.083151	1.628225	-0.446278	-0.057845	1.628225	-0.367523	-0.046999	1.365582	-0.341271	-0.028920	1.037312	-0.315019	-0.361520	7.575389	-2.336058	0.000000	0.000000	25.393585	-5.941482	2.918867	11.815911	-5.443099	169.897924	0.610333	24.973576	-1.307318	-1.366151	47.774541	-0.053800	20.901920	150.195255	89.349495	3.045263	4.296623
1.233333	-0.094871	-6.594411	95.840455	0.156381	0.624503	0.626582	7.163757	-1.109409	-14.827371	7.543827	0.131665	24.413070	-1.270646	0.000000	8.054659	-0.328681	-3.452724	5.771511	0.100732	23.878337	15.598993	0.000000	-0.046887	0.654211	-0.418482	-0.087073	0.870101	-0.444638	-0.077030	1.590649	-0.444638	-0.053587	1.590649	-0.366172	-0.043539	1.334068	-0.340017	-0.026791	1.013373	-0.313862	-0.334907	7.400568	-2.327474	0.000000	0.000000	25.562695	-6.018638	2.679586	12.178554	-5.248642	170.778348	0.602407	25.159848	-1.821677	-1.455453	48.015076	-0.118718	20.785839	149.971837	89.337957	3.037383	4.313271
1.250000	-0.202894	-6.897364	95.579970	0.157215	0.623988	0.627736	7.498850	-1.197487	-14.866911	7.492862	0.130775	24.623426	-0.584054	0.000000	8.334381	-0.238805	-3.346386	5.573181	0.097270	23.798936	15.369042	0.000000	-0.039905	0.635309	-0.388186	-0.074107	0.844961	-0.412447	-0.065559	1.544690	-0.412447	-0.045607	1.544690	-0.339663	-0.037055	1.295522	-0.315401	-0.022801	0.984094	-0.291139	-0.285034	7.186743	-2.158973	0.000000	0.000000	25.781010	-6.170864	2.406314	12.544951	-5.020751	171.807726	0.591482	25.854309	-2.609526	-1.510634	48.147804	-0.244681	20.630447	149.733899	89.332412	2.739991	4.332072
1.266667	-0.344539	-7.235891	95.299043	0.158158	0.623412	0.628930	7.869958	-1.305659	-14.911946	7.443604	0.129915	24.796665	0.056666	0.000000	8.647880	-0.119610	-3.166356	5.357267	0.093502	23.708380	15.040790	0.000000	-0.033786	0.613458	-0.354756	-0.062743	0.815899	-0.376929	-0.055506	1.491562	-0.376929	-0.038614	1.491562	-0.310412	-0.031373	1.250963	-0.288240	-0.019305	0.950246	-0.266067	-0.241327	6.939559	-1.973049	0.000000	0.000000	26.037916	-6.320039	2.179513	12.932874	-4.768072	172.805933	0.576638	27.040322	-3.448749	-1.593337	48.174515	-0.345113	20.255479	149.632407	89.332576	2.698271	4.898884
1.283333	-0.505343	-7.613054	94.986096	0.159183	0.622773	0.630156	8.294140	-1.423730	-14.974880	7.422814	0.129553	24.931141	0.664337	0.000000	9.002450	0.012110	-2.955092	5.134242	0.089609	23.609929	14.651112	0.000000	-0.026402	0.589982	-0.300745	-0.049031	0.784676	-0.319541	-0.043376	1.434482	-0.319541	-0.030175	1.434482	-0.263152	-0.024517	1.203091	-0.244355	-0.015086	0.913882	-0.225559	-0.188586	6.673992	-1.672652	0.000000	0.000000	26.303074	-6.444866	1.932392	13.286832	-4.516814	173.658729	0.557264	28.502884	-4.289965	-1.600373	48.126996	-0.370064	19.915953	149.550679	89.339135	2.623578	5.485438
1.300000	-0.678300	-8.012607	94.662085	0.160260	0.622098	0.631375	8.747903	-1.544084	-15.074291	7.424551	0.129583	25.018944	1.224503	0.000000	9.384955	0.150255	-2.700227	4.914324	0.085771	23.497370	14.212852	0.000000	-0.019754	0.565748	-0.228831	-0.036685	0.752445	-0.243133	-0.032454	1.375560	-0.243133	-0.022577	1.375560	-0.200227	-0.018344	1.153674	-0.185925	-0.011287	0.876344	-0.171623	-0.141101	6.399857	-1.272689	0.000000	0.000000	26.562088	-6.538310	1.651375	13.594705	-4.281052	174.282643	0.535206	30.122415	-5.096948	-1.543618	48.029333	-0.306258	19.666641	149.478485	89.349025	2.532770	5.991559
1.316667	-0.878330	-8.415231	94.301480	0.161400	0.621400	0.632484	9.192193	-1.670151	-15.142846	7.409244	0.129316	25.057599	1.672255	0.000000	9.751127	0.310571	-2.451432	4.673405	0.081566	23.346508	13.745667	0.000000	-0.015222	0.539182	-0.136971	-0.028269	0.717112	-0.145532	-0.025009	1.310968	-0.145532	-0.017397	1.310968	-0.119850	-0.014135	1.099500	-0.111289	-0.008698	0.835193	-0.102728	-0.108730	6.099338	-0.761793	0.000000	0.000000	26.793492	-6.601129	1.339212	13.845215	-4.055050	174.761026	0.516544	31.902555	-5.952263	-1.378272	47.910424	-0.151345	19.509101	149.411268	89.360734	2.413655	6.512133
1.333333	-1.072465	-8.827733	93.970211	0.162534	0.620672	0.633419	9.648291	-1.782437	-15.259092	7.419396	0.129493	25.078825	2.019785	0.000000	10.131624	0.462050	-2.162850	4.452288	0.077707	23.176742	13.269239	0.000000	-0.010271	0.514087	-0.037270	-0.019075	0.683736	-0.039599	-0.016875	1.249951	-0.039599	-0.011739	1.249951	-0.032611	-0.009538	1.048326	-0.030282	-0.005869	0.796321	-0.027952	-0.073368	5.815456	-0.207284	0.000000	0.000000	27.037188	-6.604463	1.037929	14.024219	-3.855363	174.855925	0.501215	33.653758	-6.702328	-1.138889	47.800539	0.067998	19.447332	149.340115	89.374362	2.311604	6.952478
1.350000	-1.256120	-9.249344	93.632860	0.163666	0.619911	0.634109	10.113198	-1.874980	-15.375197	7.444478	0.129931	25.093692	2.286654	0.000000	10.514384	0.598578	-1.891883	4.247950	0.074141	23.002770	12.794971	0.000000	-0.002965	0.491889	0.068940	-0.005507	0.654212	0.073249	-0.004871	1.195978	0.073249	-0.003389	1.195978	0.060322	-0.002753	1.003059	0.056014	-0.001694	0.761935	0.051705	-0.021180	5.564341	0.383422	0.000000	0.000000	27.271277	-6.608088	0.778393	14.148875	-3.678700	174.766158	0.487819	35.406273	-7.319459	-0.873816	47.707907	0.327884	19.447213	149.254199	89.389255	2.207437	7.290498
1.366667	-1.441097	-9.659639	93.294551	0.164799	0.619127	0.634556	10.573377	-1.963944	-15.514076	7.498959	0.130882	25.146536	2.506381	0.000000	10.878671	0.730716	-1.647131	4.066259	0.070970	22.839159	12.333422	0.000000	0.003749	0.470693	0.176989	0.006962	0.626022	0.188050	0.006159	1.144443	0.188050	0.004285	1.144443	0.154865	0.003481	0.959837	0.143803	0.002142	0.729103	0.132741	0.026778	5.324572	0.984357	0.000000	0.000000	27.503718	-6.566745	0.586227	14.229693	-3.515053	174.548999	0.476173	37.171577	-7.874918	-0.618493	47.669810	0.603755	19.479684	149.144355	89.401687	2.121627	7.572442
1.383333	-1.608039	-10.058293	92.930643	0.165938	0.618313	0.634760	11.039290	-2.024271	-15.607038	7.590324	0.132476	25.227603	2.631324	0.000000	11.225846	0.829468	-1.528719	3.913229	0.068299	22.736227	11.982384	0.000000	0.011029	0.453134	0.290421	0.020482	0.602668	0.308572	0.018119	1.101749	0.308572	0.012605	1.101749	0.254118	0.010241	0.924030	0.235967	0.006302	0.701904	0.217816	0.078778	5.125940	1.615233	0.000000	0.000000	27.712456	-6.537691	0.448370	14.268620	-3.373131	174.200015	0.464080	39.003900	-8.362484	-0.392821	47.679740	0.882272	19.561516	149.000450	89.411510	1.963889	7.741400
1.400000	-1.751115	-10.422338	92.587550	0.166956	0.617496	0.634726	11.484059	-2.074304	-15.775148	7.724541	0.134819	25.369812	2.787880	0.000000	11.536791	0.907340	-1.398142	3.790585	0.066158	22.699597	11.618269	0.000000	0.016732	0.440426	0.397198	0.031073	0.585766	0.422023	0.027489	1.070851	0.422023	0.019123	1.070851	0.347548	0.015538	0.898116	0.322723	0.009561	0.682219	0.297899	0.119517	4.982184	2.209096	0.000000	0.000000	27.868607	-6.461542	0.432688	14.276559	-3.259414	173.918788	0.451349	40.882958	-8.846578	-0.263847	47.707977	1.188734	19.616139	148.823918	89.415821	1.890681	7.817740
